PathFileType	4	(X/Y/Z)	C:\Users\WrightLab\Desktop\Jo\P4V122.trc
DataRate	CameraRate	NumFrames	NumMarkers	Units	OrigDataRate	OrigDataStartFrame	OrigNumFrames
100.00	100.00	       13	19	mm	100.00	396	       633
Frame#	Time	Headset_Front			Headset_Back			Headset_Left			Headset_Right			Left_Shoulder			Right_Shoulder			Sternum			C7			Left Elbow			Right Elbow			Left Wrist			Right Wrist			Left ASIS			Right ASIS			S2			Left Knee			Right Knee			Left Ankle			Right Ankle			
		X1	Y1	Z1	X2	Y2	Z2	X3	Y3	Z3	X4	Y4	Z4	X5	Y5	Z5	X6	Y6	Z6	X7	Y7	Z7	X8	Y8	Z8	X9	Y9	Z9	X10	Y10	Z10	X11	Y11	Z11	X12	Y12	Z12	X13	Y13	Z13	X14	Y14	Z14	X15	Y15	Z15	X16	Y16	Z16	X17	Y17	Z17	X18	Y18	Z18	X19	Y19	Z19	

396	3.950	75.93122	1702.68420	1312.75964							-16.86241	1721.65234	1193.56873	263.51685	1557.49329	1097.16980	-41.15103	1544.93127	1094.59253	125.82475	1489.64465	1206.52490				425.59378	1215.86169	1104.13684	-165.91081	1190.90735	1092.39807	437.79092	976.48376	1302.83044	-166.51059	915.78693	1230.17505	293.43201	1057.77563	1171.30786	-35.09094	1056.38904	1221.04785	122.15549	1074.22400	1005.98163	367.08743	583.94403	1215.91479	21.51925	574.16296	1247.33606	236.94110	296.20181	829.43982	144.42564	88.21384	1188.44702	
397	3.960	75.67315	1703.48779	1321.54053							-17.07177	1722.70984	1201.96021	264.26044	1558.54773	1105.20569	-40.88581	1546.77625	1102.46582	126.66213	1491.08545	1214.68274				424.20090	1216.29138	1112.98035	-166.51888	1192.91406	1100.87024	434.37186	974.61060	1309.29333	-164.78757	918.42914	1239.89856	294.38358	1059.66602	1179.82727	-36.27819	1057.02856	1228.25098	123.82258	1075.65332	1014.14307	366.76074	588.20117	1239.08032	21.04008	573.81622	1249.75708	245.64015	296.37082	851.56543	144.42433	88.21051	1188.43713	
398	3.970										-17.03654	1723.84106	1210.04138	264.15347	1559.75513	1114.06592	-39.65958	1548.34241	1110.18518	126.19601	1492.71753	1223.58191				423.10864	1217.02124	1122.93909	-166.16907	1194.73682	1109.07593	430.99442	973.20642	1315.57715	-163.37724	921.10657	1250.13831	293.25583	1062.28101	1191.74670	-37.73725	1057.77319	1235.16504	124.48158	1076.11621	1023.31470	365.45956	593.55566	1261.25024	20.76552	573.66602	1251.94763	253.67422	294.54819	874.85614	144.58803	88.10336	1188.60938	
399	3.980										-17.65731	1725.03455	1218.09180	264.86246	1561.50952	1123.37891	-39.29492	1550.01074	1117.88403	125.68678	1494.07178	1231.76929				422.69284	1217.51794	1131.68213	-165.97778	1196.58447	1117.41089	427.88651	971.58368	1322.46301	-162.55733	923.81244	1260.28357	291.49274	1063.69531	1201.57031	-39.23238	1058.20288	1242.36853	126.33695	1077.32910	1031.67249	363.91159	597.87360	1284.01331	21.09556	573.16565	1253.64331	261.41522	292.30951	898.57513	144.29420	88.06967	1188.32446	
400	3.990										-16.98661	1725.62610	1226.14026	265.68484	1562.27661	1132.56958	-39.12288	1551.44470	1125.52185	125.97809	1495.38806	1240.00391				421.13419	1217.64209	1140.24756	-165.99513	1198.06299	1125.63367	424.89984	970.12720	1329.29919	-161.90762	926.37140	1270.18616	291.42685	1065.66516	1211.66345	-40.98153	1058.84717	1249.18811	127.18592	1077.45410	1040.45239	361.60159	603.21198	1305.14722	20.58008	573.15778	1256.44092	267.76050	288.10886	922.52014	143.86928	88.38039	1188.20850	
401	4.000										-17.69202	1726.71448	1234.03430	265.94592	1563.32422	1142.14392	-38.89489	1552.52136	1133.34448	125.82854	1496.20630	1248.64868				420.74481	1218.05103	1148.14099	-165.81310	1199.38708	1133.69409	422.16931	968.84424	1336.18591	-161.30630	929.45331	1280.68286	291.17282	1067.71423	1222.13403	-42.56429	1059.11511	1255.73633	129.27087	1078.81396	1049.59167	359.08820	607.72937	1325.04700	20.52022	572.92670	1258.60205	274.21088	283.54630	947.39813	143.84042	88.35709	1188.16455	
402	4.010										-17.29624	1727.46094	1241.85022	265.97012	1564.28857	1151.42236	-37.77929	1553.75134	1140.68616	124.96622	1497.39832	1256.79578				420.32111	1218.12158	1156.76794	-166.00407	1200.52893	1141.88257	419.15918	967.03638	1342.74976	-160.37837	931.71027	1291.19336	290.39734	1069.80811	1232.78809	-43.72141	1059.33191	1262.27319	130.95436	1079.29504	1058.25464	356.08109	612.20734	1345.15063	19.85739	573.17450	1261.16675	280.50430	277.12689	972.60083	143.84827	88.47100	1188.46375	
403	4.020										-17.43422	1728.36633	1249.72583	266.02707	1563.93372	1158.61987	-38.17560	1554.97339	1148.31787	124.85675	1498.16418	1264.91565				419.79196	1218.04980	1164.70544	-165.72073	1201.59314	1149.69897	417.08588	966.25189	1346.00867	-160.20940	934.35223	1301.47571	288.76706	1071.74060	1243.81714	-45.16114	1059.60291	1268.65222	132.86819	1079.05188	1067.56873	352.59271	616.67609	1363.95288	19.71564	572.99774	1263.22595	285.74368	269.87173	998.12451	143.83029	88.46459	1188.47498	
404	4.030										-17.34781	1729.12354	1257.47803	266.61862	1564.24365	1168.23389	-38.12986	1555.58215	1156.09192	124.11324	1498.92053	1273.71558				419.34494	1217.71680	1173.09058	-165.89682	1202.37708	1157.58948	415.08755	964.66388	1352.36890	-159.67549	936.33557	1311.86035	288.02194	1073.04932	1254.79053	-46.82294	1059.77454	1274.96033	134.95096	1080.13867	1074.96179	348.46851	620.27386	1382.36804	19.27453	572.81616	1265.70642	290.91232	261.85513	1025.26086	143.77596	88.45856	1188.46924	
405	4.040										-16.90899	1729.80994	1265.34204	267.09073	1564.67114	1177.54004	-37.93472	1556.40247	1163.58948	123.72198	1499.40112	1282.27478				419.40622	1217.44482	1181.66797	-166.15092	1203.16321	1165.61389	413.59113	963.10425	1358.40222	-159.97493	938.45776	1322.94336	287.03220	1074.35889	1266.34534	-48.15460	1059.90137	1281.22314	136.95349	1079.84863	1084.31543	344.87308	623.93689	1400.11487	18.92600	572.62952	1268.20300	295.60095	253.35078	1051.87415	143.75533	88.45831	1188.48547	
406	4.050										-17.62573	1730.90735	1273.04846	266.91904	1564.56384	1187.17517	-37.79068	1556.51135	1171.08582	123.23499	1499.63257	1290.77271				418.32938	1217.10254	1188.41614	-165.79784	1203.14746	1173.89368	411.91104	962.12140	1364.71350	-159.18230	940.13080	1333.21423	285.68423	1075.29492	1277.14075	-48.44397	1059.44360	1287.33350	138.60352	1081.29236	1091.70862	340.94427	627.52777	1416.54272	18.62027	572.52289	1270.75281	300.60910	243.47331	1080.14832	143.76047	88.41134	1188.49292	
407	4.060										-16.97467	1731.55432	1280.80066	267.12439	1564.72412	1197.22058	-37.55896	1556.79614	1178.67102	122.92506	1499.78015	1299.41101				418.25827	1216.65686	1196.39001	-166.25580	1203.43225	1182.46375	410.75070	960.17249	1370.93555	-159.34555	942.05835	1344.14514	284.05164	1075.58813	1287.58118	-50.04682	1059.58252	1293.54895	140.59920	1081.09253	1101.98840	336.73505	630.29907	1432.17358	18.55715	572.19513	1273.62280	305.03464	233.00270	1108.47278	145.01021	87.23492	1189.08167	
408	4.070										-17.77852	1732.21875	1288.59253	266.85092	1564.63428	1205.10999	-38.13588	1556.81030	1186.32800	122.16552	1499.70532	1307.60925				417.84177	1215.96460	1204.35913	-166.33226	1203.35791	1190.78235	409.14835	958.90564	1376.76184	-159.37482	943.91785	1354.73669	283.31485	1076.22351	1298.98206	-51.24861	1059.21033	1299.78418	142.83670	1082.01489	1110.65796	330.67935	631.67090	1446.97278	18.26491	572.32422	1276.33191	308.58484	222.30055	1136.64722	144.37939	88.01891	1189.00000	
